<svg width="82" height="81" viewBox="0 0 82 81" fill="none" xmlns="http://www.w3.org/2000/svg">
<g clip-path="url(#clip0_29_2648)">
<path d="M0 68.984C0.376229 67.3248 0.634098 65.6254 1.15406 64.0106C2.42224 60.0644 5.26932 56.2915 8.5032 54.0764C11.8005 57.5492 15.8671 59.4345 20.6863 59.4451C25.5054 59.4557 29.5932 57.5957 32.9581 54.0553C34.7537 55.3627 36.3243 56.954 37.6081 58.7666C39.9331 62.0259 41.1273 65.6719 41.4317 69.6519C41.6769 72.8224 40.3749 75.215 37.8385 77.0074C35.4226 78.7068 32.6537 79.5522 29.8024 80.0996C23.2699 81.4151 16.529 81.2889 10.0504 79.7298C9.07841 79.4886 8.12199 79.1886 7.1864 78.8315C3.77286 77.5485 0.96805 75.6229 0 71.8247V68.984Z" fill="white"/>
<path d="M61.5451 -0.00537109C62.1792 0.136243 62.8133 0.258835 63.4474 0.417358C69.3022 1.93918 73.4027 7.45791 73.0349 13.3106C72.6481 19.6135 68.1313 24.5784 62.0186 25.4429C55.145 26.4046 48.616 21.5094 47.6458 14.6633C47.399 12.9906 47.4867 11.2856 47.9039 9.64709C48.3211 8.00857 49.0595 6.46919 50.0762 5.11823C51.0929 3.76727 52.3677 2.63162 53.8267 1.77713C55.2857 0.922647 56.8998 0.366339 58.5755 0.140471C58.7259 0.10742 58.8731 0.0607257 59.0151 0.000969586L61.5451 -0.00537109Z" fill="white"/>
<path d="M39.2377 -0.00537109C39.3962 0.0770611 39.5505 0.165835 39.7112 0.239813C40.2887 0.482533 40.77 0.909103 41.0803 1.45333C41.3907 1.99755 41.5127 2.62899 41.4275 3.24964C41.3277 3.8938 41.011 4.48459 40.5298 4.92429C40.0486 5.36398 39.4317 5.62623 38.7812 5.66765C38.5191 5.68879 38.2549 5.66765 37.9907 5.66765C28.8964 5.66765 19.8006 5.66765 10.7035 5.66765C8.12274 5.66765 6.26484 7.10916 5.78293 9.47222C5.71267 9.89109 5.68435 10.3159 5.69839 10.7404C5.69839 14.3336 5.69839 17.912 5.68148 21.4967C5.65823 23.7393 3.5932 25.1132 1.64231 24.2212C0.784167 23.8302 0.393138 23.0735 0 22.302V9.32849C0.0573299 9.18612 0.104646 9.03992 0.141611 8.89096C0.910978 4.52417 3.44947 1.71514 7.64928 0.383541C8.19672 0.210222 8.77163 0.123561 9.3402 -0.00537109H39.2377Z" fill="white"/>
<path d="M48.0051 23.9105C49.5682 25.6052 51.4649 26.9581 53.5762 27.8842C55.6875 28.8103 57.9675 29.2895 60.2729 29.2917C62.5784 29.2939 64.8593 28.819 66.9723 27.8969C69.0853 26.9748 70.9847 25.6255 72.5509 23.9338C75.4759 26.0729 77.7843 28.9464 79.2427 32.2637C80.3758 34.8256 80.9749 37.5916 81.0034 40.3927C81.0495 42.1791 80.4061 43.9146 79.2068 45.2393C77.463 47.2346 75.1908 48.3865 72.701 49.0967C64.202 51.5295 55.6903 51.5528 47.2506 48.8579C45.6349 48.3009 44.1128 47.5028 42.7358 46.4906C40.5123 44.9202 39.411 42.686 39.5653 39.8897C39.931 33.2761 42.7654 27.9793 48.0051 23.9105Z" fill="white"/>
<path d="M20.7137 30.15C22.3915 30.1489 24.0531 30.4783 25.6036 31.1194C27.1541 31.7605 28.5631 32.7008 29.7501 33.8865C30.9372 35.0722 31.8791 36.4801 32.522 38.0298C33.1649 39.5796 33.4962 41.2408 33.4971 42.9186C33.4849 46.2935 32.1409 49.5272 29.7574 51.9166C27.3739 54.3061 24.1436 55.6581 20.7687 55.6786C17.3806 55.6826 14.1289 54.3438 11.7258 51.9554C9.32276 49.5669 7.96407 46.3236 7.9473 42.9355C7.94561 39.5473 9.28949 36.2972 11.6835 33.8997C14.0775 31.5021 17.3256 30.1534 20.7137 30.15Z" fill="white"/>
<path d="M60.4926 80.9874C56.986 80.9874 53.4774 80.9874 49.9708 80.9874C49.372 81.0019 48.7844 80.8236 48.2947 80.4789C47.8049 80.1341 47.4389 79.641 47.2506 79.0724C46.8617 77.9438 47.1829 76.6164 48.1975 75.9738C48.8165 75.5901 49.5261 75.3772 50.2541 75.3566C56.9501 75.3123 63.6482 75.3355 70.3464 75.3271C72.8595 75.3271 74.6941 73.9426 75.2078 71.6599C75.2968 71.194 75.335 70.7199 75.3219 70.2459C75.3346 66.6865 75.3219 63.1271 75.3409 59.5677C75.3536 57.4224 77.1122 56.0443 79.025 56.6467C79.5864 56.8143 80.0795 57.1569 80.4324 57.6246C80.7853 58.0923 80.9794 58.6606 80.9865 59.2464C81.0055 63.2264 81.09 67.2128 80.9548 71.1885C80.773 76.5995 76.2096 80.9261 70.7691 80.9874C67.3471 81.0191 63.9188 80.9874 60.4926 80.9874Z" fill="white"/>
</g>
<defs>
<clipPath id="clip0_29_2648">
<rect width="81.0351" height="81.0055" fill="white" transform="translate(0 -0.00537109)"/>
</clipPath>
</defs>
</svg>
