<svg width="37" height="37" viewBox="0 0 37 37" fill="none" xmlns="http://www.w3.org/2000/svg">
<g clip-path="url(#clip0_35_16)">
<path d="M28.3418 37C26.868 36.8613 25.4176 36.5369 24.0251 36.0345C20.151 34.6086 16.5644 32.4988 13.4359 29.8055C8.99488 26.2036 5.31122 21.7578 2.59749 16.7247C1.40695 14.5241 0.566348 12.1515 0.105909 9.69224C0.0173694 9.31356 0.00933519 8.92051 0.0822991 8.53852C0.155263 8.15654 0.307595 7.79412 0.529473 7.47473C2.17501 5.04736 4.07984 2.80628 6.2103 0.791061C6.4442 0.57904 6.69409 0.385373 6.95776 0.211773C7.05144 0.128337 7.16076 0.0643474 7.27938 0.0235243C7.398 -0.0172988 7.52355 -0.0341466 7.64873 -0.0260329C7.77391 -0.0179191 7.89624 0.0149972 8.00859 0.0707908C8.12095 0.126584 8.2211 0.204148 8.30322 0.298978C8.52135 0.483768 8.71778 0.692739 8.88874 0.921874C10.6048 3.27749 12.1117 5.77859 13.3923 8.39662C14.0712 9.82305 14.0152 10.066 12.8192 11.1249C12.0344 11.8163 11.2557 12.514 10.4709 13.1991C10.3817 13.2726 10.318 13.3724 10.2889 13.4843C10.2598 13.5962 10.2668 13.7144 10.3089 13.822C11.3589 17.4236 13.4607 20.6294 16.3448 23.0284C18.3079 24.7233 20.6161 25.971 23.1094 26.6848C23.2086 26.727 23.319 26.7346 23.423 26.7063C23.5269 26.6781 23.6184 26.6157 23.6825 26.5291C24.349 25.7754 25.0217 25.0342 25.682 24.2805C26.8281 22.9661 27.0773 22.8914 28.6345 23.6576C31.1746 24.8991 33.6026 26.3579 35.8913 28.0178C37.2118 28.9709 37.2679 29.519 36.1716 30.715C34.0778 32.9794 31.7042 34.9679 29.1079 36.6325C28.8621 36.774 28.606 36.8969 28.3418 37Z" fill="white"/>
<path d="M19.777 2.62862V0.06229C28.3293 -0.29276 37.0063 7.19444 36.9128 17.1421H34.3154C34.2876 13.2972 32.7461 9.61796 30.0249 6.90144C27.3038 4.18493 23.622 2.64981 19.777 2.62862Z" fill="white"/>
<path d="M30.2977 17.1608H27.7687C27.2579 12.3583 24.6542 9.68604 19.7957 9.16904V6.64632C25.3519 6.47191 30.4347 11.3554 30.2977 17.1608Z" fill="white"/>
</g>
<defs>
<clipPath id="clip0_35_16">
<rect width="36.9377" height="37" fill="white"/>
</clipPath>
</defs>
</svg>
