<svg width="33" height="33" viewBox="0 0 33 33" fill="none" xmlns="http://www.w3.org/2000/svg">
<g clip-path="url(#clip0_29_2662)">
<path d="M16.5181 0.00286176C19.5523 0.00286176 22.5874 -0.00577447 25.6226 0.00286176C29.2786 0.0153363 32.1957 2.42197 32.8789 5.99065C32.9604 6.45083 32.9986 6.91762 32.9931 7.38492C33.0001 13.468 33.0001 19.5508 32.9931 25.6333C32.9931 29.676 29.8543 32.905 25.803 32.9328C19.6022 32.975 13.4007 32.975 7.19861 32.9328C3.16261 32.9069 0.0170995 29.699 0.00750364 25.6726C-0.00657022 19.5543 -0.00657022 13.4354 0.00750364 7.31583C0.0170995 3.52548 2.71161 0.513359 6.47412 0.0422042C6.82039 0.00826793 7.1684 -0.00455036 7.51623 0.00382082C10.5184 0.00190165 13.519 0.00158232 16.5181 0.00286176ZM13.5299 20.3047C13.695 20.1128 13.8303 19.9669 13.9637 19.8144C15.2591 18.3366 16.542 16.8483 17.8528 15.3849C18.8642 14.2555 20.1453 13.77 21.6605 13.9456C22.7822 14.078 23.7005 14.5952 24.4432 15.4416C26.3682 17.6409 28.294 19.84 30.2209 22.0387C30.3581 22.1961 30.5001 22.3486 30.6892 22.5588C30.6988 22.3851 30.7083 22.2939 30.7083 22.2037C30.7083 17.2465 30.7189 12.2893 30.7083 7.33022C30.7007 4.46971 28.5349 2.30586 25.6715 2.3001C19.5667 2.28858 13.4618 2.28858 7.35694 2.3001C4.49259 2.30586 2.32585 4.47163 2.31913 7.32926C2.30762 12.25 2.31913 17.1707 2.31913 22.0915C2.31913 22.1874 2.33545 22.2834 2.34984 22.4455C3.42553 21.152 4.44653 19.9132 5.47808 18.684C7.34734 16.4549 10.3806 16.477 12.2297 18.7166C12.649 19.2396 13.076 19.7558 13.5299 20.3047Z" fill="white"/>
<path d="M5.76515 8.82626C5.76135 8.42462 5.83713 8.02621 5.98811 7.65401C6.1391 7.28181 6.3623 6.9432 6.64484 6.65772C6.92738 6.37224 7.26366 6.14554 7.63427 5.9907C8.00488 5.83587 8.40249 5.75596 8.80415 5.7556C9.20647 5.74951 9.60603 5.82292 9.97991 5.97163C10.3538 6.12034 10.6946 6.34141 10.9829 6.62215C11.2711 6.9029 11.5011 7.2378 11.6596 7.60764C11.8181 7.97748 11.902 8.37498 11.9065 8.77732C11.9101 9.1829 11.8334 9.58519 11.6808 9.96096C11.5281 10.3367 11.3025 10.6785 11.017 10.9666C10.7315 11.2547 10.3917 11.4834 10.0174 11.6394C9.64299 11.7955 9.24141 11.8758 8.83581 11.8758C8.43395 11.8772 8.03575 11.7994 7.66395 11.6469C7.29215 11.4944 6.95403 11.2702 6.66889 10.987C6.38376 10.7038 6.15719 10.3672 6.00212 9.99651C5.84706 9.62577 5.76653 9.22812 5.76515 8.82626Z" fill="white"/>
</g>
<defs>
<clipPath id="clip0_29_2662">
<rect width="33" height="32.9645" fill="white"/>
</clipPath>
</defs>
</svg>
