<svg width="103" height="75" viewBox="0 0 103 75" fill="none" xmlns="http://www.w3.org/2000/svg">
<g clip-path="url(#clip0_29_2614)">
<path d="M40.6099 17.8323C41.5782 18.1377 42.6106 18.321 43.5025 18.7761C51.8047 23.0097 60.0825 27.2921 68.3694 31.5593C70.7183 32.7811 71.989 34.7116 71.9768 37.3323C71.9645 39.9531 70.6664 41.8683 68.3113 43.0779C60.0977 47.3053 51.8933 51.5634 43.6644 55.7755C39.0429 58.1397 34.1526 55.1646 34.1282 49.9719C34.0875 41.513 34.0875 33.055 34.1282 24.598C34.0922 22.8418 34.7544 21.143 35.9696 19.8745C37.1848 18.606 38.8537 17.8716 40.6099 17.8323Z" fill="white"/>
<path d="M0 36.0556C0.192435 23.4435 4.98803 11.4087 14.7014 1.38679C16.3325 -0.29625 18.5379 -0.445923 20.0835 1.01108C21.6291 2.46809 21.6443 4.74065 19.9369 6.48784C14.3288 12.2364 10.4006 18.9594 8.63514 26.7882C5.16825 42.1066 8.71455 55.6748 19.2404 67.3736C19.5703 67.7432 19.9369 68.0792 20.2606 68.4518C21.6291 70.0402 21.5496 72.2242 20.0865 73.5987C19.7415 73.9296 19.3342 74.1886 18.8884 74.361C18.4425 74.5333 17.9668 74.6155 17.489 74.6027C17.0111 74.5899 16.5406 74.4824 16.1045 74.2865C15.6685 74.0906 15.2757 73.8101 14.9488 73.4613C9.44839 67.9812 5.28251 61.3091 2.77351 53.9612C0.922471 48.5822 0.0427633 43.0413 0 36.0556Z" fill="white"/>
<path d="M102.47 38.38C102.25 51.2579 97.43 63.2835 87.6983 73.2871C86.1222 74.909 83.9199 75.0312 82.3957 73.6108C80.8715 72.1905 80.8104 69.8904 82.4415 68.2196C88.6239 61.8845 92.7475 54.4376 94.3022 45.7231C96.9261 31.0339 93.2056 18.1163 83.1043 7.07422C82.5079 6.49237 81.9941 5.83153 81.5771 5.11016C81.2152 4.34321 81.1416 3.47156 81.37 2.65481C81.5983 1.83807 82.1131 1.1309 82.8203 0.662781C83.5283 0.161042 84.3938 -0.067705 85.2572 0.0187498C86.1207 0.105205 86.9237 0.501027 87.5181 1.13318C90.5274 4.11288 93.143 7.46547 95.301 11.1092C100.078 19.1946 102.409 27.958 102.47 38.38Z" fill="white"/>
<path d="M14.845 37.2865C15.0069 27.6312 18.2752 19.2251 24.9463 12.1844C26.8004 10.2234 29.0271 9.9913 30.6429 11.5735C32.2588 13.1558 32.0999 15.2848 30.255 17.2214C25.557 22.1126 22.7225 28.4963 22.2447 35.2615C21.767 42.0267 23.6763 48.7453 27.6403 54.2483C28.5034 55.4092 29.4346 56.5179 30.4291 57.5685C32.0908 59.4012 32.1946 61.5394 30.6338 63.0667C29.0729 64.5939 26.8401 64.4137 25.1723 62.6818C18.3699 55.58 15.0099 47.0915 14.845 37.2865Z" fill="white"/>
<path d="M87.6281 36.8955C87.4601 47.0304 84.149 55.467 77.4321 62.529C75.6849 64.3617 73.4796 64.5847 71.8882 63.0972C70.2418 61.5699 70.3609 59.3554 72.1631 57.4494C77.1915 52.2374 80.0893 45.3336 80.2871 38.0941C80.4849 30.8546 77.9685 23.8028 73.2321 18.324C72.7373 17.7437 72.1814 17.2152 71.6865 16.6379C70.3273 15.0465 70.425 12.8625 71.9034 11.4972C72.5901 10.8444 73.5072 10.4899 74.4544 10.511C75.4015 10.5322 76.3019 10.9274 76.9587 11.6102C82.8104 17.3946 86.4799 25.026 87.344 33.2087C87.5151 34.568 87.5609 35.9425 87.6281 36.8955Z" fill="white"/>
</g>
<defs>
<clipPath id="clip0_29_2614">
<rect width="102.47" height="74.6036" fill="white"/>
</clipPath>
</defs>
</svg>
