<svg width="37" height="45" viewBox="0 0 37 45" fill="none" xmlns="http://www.w3.org/2000/svg">
<g clip-path="url(#clip0_27_2575)">
<path d="M7.04302 0C7.83451 0.166222 8.59736 0.395191 9.23253 0.934588C10.4005 1.92532 10.9234 3.17694 10.7627 4.70596C10.755 4.77861 10.7483 4.85017 10.7351 4.99988C10.8815 4.82815 10.9795 4.70926 11.0819 4.59478C12.2466 3.30023 14.4229 3.73505 14.9755 5.37856C15.0085 5.51501 14.9989 5.65833 14.9479 5.78916C14.7278 6.42322 14.4614 7.04408 14.261 7.68475C14.1443 8.05463 13.9066 8.23516 13.5719 8.34524C13.2318 8.46427 12.8687 8.50272 12.5111 8.45756C12.1536 8.4124 11.8115 8.28486 11.5116 8.085C11.2117 7.88513 10.9624 7.61838 10.7831 7.30576C10.6039 6.99314 10.4997 6.64317 10.4786 6.28342C10.472 6.18655 10.4687 6.08858 10.4566 5.88053C9.98768 6.77328 9.41747 7.44698 8.59516 7.85538C7.05403 8.61934 5.55033 8.54889 4.16771 7.52514C2.72125 6.45515 2.17193 4.96355 2.58584 3.22427C2.99974 1.48499 4.17651 0.413905 5.96533 0.0748559C6.03372 0.0559984 6.10038 0.0313239 6.16457 0.00110188L7.04302 0Z" fill="white"/>
<path d="M12.7155 10.8088H8.67442L14.2302 12.0978C14.2974 11.9382 14.3634 11.7973 14.4185 11.6575C15.1164 9.78613 15.8209 7.90484 16.51 6.02466C16.739 5.3994 17.1011 4.91174 17.7451 4.69158C18.0691 4.56652 18.4225 4.53844 18.7623 4.61077C19.102 4.68309 19.4133 4.85268 19.6583 5.09888C20.2197 5.62727 20.4069 6.30206 20.1515 7.0264C19.5449 8.75026 18.8987 10.4587 18.2658 12.1727C17.9421 13.0533 17.6185 13.9285 17.2861 14.8036C16.849 15.9485 16.0102 16.391 14.8147 16.1158L8.01945 14.5493C7.9892 14.5396 7.95721 14.5365 7.92567 14.5403C7.89412 14.5441 7.86378 14.5547 7.83671 14.5713C8.29685 14.7816 8.75589 14.9941 9.21603 15.2021C10.7748 15.9055 12.3313 16.6155 13.8967 17.3058C14.0173 17.3502 14.1234 17.427 14.2032 17.5278C14.2831 17.6286 14.3335 17.7494 14.3491 17.8771C14.8393 20.2702 15.3398 22.6605 15.8506 25.0478C15.8987 25.2617 15.9657 25.471 16.0509 25.673C16.7599 27.4046 17.4908 29.1273 18.1733 30.8699C18.3532 31.3308 18.4512 31.8196 18.4628 32.3142C18.5201 35.7267 18.5454 39.1392 18.5729 42.5517C18.5839 43.745 18.0225 44.5871 17.0384 44.8953C15.5754 45.3533 14.1906 44.2855 14.1686 42.664C14.1311 39.8669 14.0728 37.0697 14.0948 34.2725C14.1047 33.0484 13.9198 31.9168 13.3991 30.7995C12.7584 29.4246 12.2311 27.9957 11.6378 26.5526L9.84349 26.9268C9.79395 27.682 9.73891 28.4228 9.69598 29.1648C9.5958 30.8897 9.52315 32.6169 9.38885 34.3386C9.36002 34.8326 9.22325 35.3143 8.98816 35.7498C7.40079 38.4611 5.76719 41.1482 4.13689 43.843C3.62831 44.6873 2.86876 45.1111 1.88794 44.9669C0.932433 44.8271 0.304967 44.2459 0.0605874 43.2992C-0.111139 42.6387 0.0771049 42.0332 0.42386 41.4597C1.89161 39.0299 3.35348 36.5967 4.80948 34.1603C4.93045 33.9481 5.00194 33.7115 5.01864 33.4678C5.13753 31.7297 5.20137 29.9871 5.35659 28.2522C5.46667 27.0798 5.12432 25.9889 4.89535 24.8782C4.14019 21.2114 3.35421 17.5523 2.58365 13.8888C2.19616 12.0428 3.10763 10.6668 4.97681 10.2683C6.54986 9.93804 8.12182 9.58908 9.69928 9.27755C10.9905 9.02437 12.3093 9.71788 12.7155 10.8088Z" fill="white"/>
<path d="M35.4505 7.13324V4.43296C34.8737 4.56395 34.3255 4.68614 33.7784 4.80943C32.7656 5.0373 31.7551 5.27398 30.7401 5.48753C30.4638 5.54588 30.3615 5.65706 30.3648 5.95097C30.3758 7.15086 30.2954 8.35514 30.3648 9.55062C30.4748 11.3659 28.9502 12.0252 27.5599 11.7434C26.5769 11.5442 25.9241 10.8628 25.9703 10.1385C26.0177 9.39431 26.764 8.73052 27.7217 8.62484C28.0949 8.58411 28.4758 8.61824 28.9095 8.61824V8.13388C28.9095 6.72851 28.9095 5.32315 28.9095 3.91778C28.9095 3.25729 29.0724 3.05364 29.6977 2.91164L35.8974 1.50591C36.5359 1.3606 36.9289 1.66112 36.9289 2.3139C36.9289 4.30416 36.9263 6.29479 36.9212 8.28579C36.9212 9.30514 36.4071 9.97553 35.4131 10.2144C34.5269 10.428 33.6903 10.308 32.9913 9.67171C32.3627 9.09709 32.3759 8.28799 33.0034 7.70897C33.5296 7.22241 34.1714 7.0705 34.8682 7.09582C35.0509 7.09802 35.2237 7.11343 35.4505 7.13324Z" fill="white"/>
<path d="M21.6992 7.31934C22.3398 7.50757 22.6767 7.88735 22.6899 8.42015C22.7086 9.06742 22.4026 9.46041 21.6287 9.74112C21.7553 10.504 21.8808 11.2823 22.0129 12.0528C22.942 17.4835 23.8725 22.9167 24.8046 28.3525C25.3374 31.4656 25.8694 34.5787 26.4007 37.6918C26.5042 38.3005 26.2455 38.7442 25.7402 38.8509C25.2196 38.961 24.7903 38.6484 24.678 38.011C24.2376 35.5199 23.8138 33.0265 23.3867 30.5332C22.5538 25.6618 21.7208 20.7903 20.8879 15.9189C20.6512 14.5362 20.409 13.1536 20.179 11.7688C20.1556 11.6271 20.1681 11.4818 20.2153 11.3461C20.704 10.0042 21.1994 8.67443 21.6992 7.31934Z" fill="white"/>
</g>
<defs>
<clipPath id="clip0_27_2575">
<rect width="36.9344" height="45" fill="white"/>
</clipPath>
</defs>
</svg>
