<svg width="91" height="79" viewBox="0 0 91 79" fill="none" xmlns="http://www.w3.org/2000/svg">
<g clip-path="url(#clip0_27_2596)">
<path d="M65.2254 23.7635V78.9432C64.8712 78.9605 64.5442 78.9877 64.2147 78.9877C44.9278 78.9877 25.6408 78.9877 6.35386 78.9877C3.06175 78.9877 0.790212 77.3198 0.14368 74.4238C0.0419836 73.9097 -0.0028827 73.386 0.00990548 72.8621C-0.00165448 69.1309 -0.00165448 65.3997 0.00990548 61.6685C0.00990548 59.9042 0.50534 59.3977 2.30869 59.2717C6.61891 58.9702 9.63853 56.0371 9.98781 51.8142C10.295 48.13 7.66674 44.6063 3.90645 43.7143C3.24081 43.5858 2.56708 43.5033 1.89006 43.4672C0.691124 43.3536 0.0321991 42.7679 0.0247677 41.5991C0.00247348 37.4355 -0.039639 33.2719 0.0544921 29.1108C0.118898 26.2716 2.53163 23.9662 5.38529 23.7932C5.78411 23.771 6.18788 23.7685 6.58917 23.7685H65.2254V23.7635ZM36.5427 53.3685C40.6201 53.3685 44.6991 53.3685 48.7797 53.3685C49.2109 53.3796 49.6418 53.3381 50.0629 53.2449C50.9274 53.0324 51.4204 52.3208 51.4204 51.3867C51.4204 50.4527 50.9249 49.7336 50.0678 49.5236C49.6151 49.4291 49.1529 49.3877 48.6906 49.4001C40.625 49.4001 32.5586 49.4001 24.4914 49.4001C24.1214 49.388 23.751 49.407 23.3842 49.4569C22.917 49.5087 22.4878 49.7377 22.1853 50.0964C21.8828 50.4552 21.7302 50.9163 21.7592 51.3843C21.7592 52.6395 22.5568 53.3611 24.0257 53.3611C28.1972 53.3759 32.3687 53.3685 36.5427 53.3685ZM36.5898 59.2988H33.4364C30.2161 59.2988 27.0082 59.2816 23.7954 59.3137C22.1629 59.3285 21.2637 60.7963 21.9697 62.1973C22.4057 63.0622 23.186 63.2376 24.0753 63.2351C32.4183 63.2351 40.7579 63.2351 49.0943 63.2351C49.2479 63.2351 49.404 63.2351 49.5575 63.2351C50.9447 63.1239 51.7424 61.9082 51.2915 60.5887C50.9893 59.6917 50.3998 59.3186 49.1785 59.3161C44.9889 59.2947 40.7926 59.2857 36.5898 59.289V59.2988ZM29.5968 43.4845C31.5413 43.4845 33.4834 43.4993 35.428 43.4845C36.8375 43.4697 37.5657 42.7704 37.5558 41.5077C37.5459 40.245 36.7954 39.568 35.3784 39.5631C31.5802 39.5532 27.7819 39.5532 23.9836 39.5631C22.537 39.5631 21.7344 40.3044 21.7542 41.5571C21.774 42.8099 22.5246 43.4746 23.9489 43.487C25.839 43.4796 27.7167 43.4697 29.5968 43.4672V43.4845Z" fill="#FF4B50"/>
<path d="M69.2854 23.7635H70.2441C75.0332 23.7635 79.8223 23.7635 84.6115 23.7635C88.6145 23.7635 90.9554 26.0888 90.9703 30.0646C90.9703 33.524 90.9158 36.971 90.995 40.423C91.0396 42.4294 90.4996 43.3708 88.2306 43.5759C86.6652 43.7271 85.1832 44.3506 83.982 45.3633C82.7809 46.376 81.9178 47.7299 81.5076 49.2444C81.0828 50.7705 81.1273 52.3886 81.6352 53.8892C82.1432 55.3898 83.0911 56.7037 84.3563 57.6606C85.6261 58.6052 87.1429 59.163 88.7235 59.2667C90.4575 59.4199 90.9529 60.008 90.9678 61.7674C90.9678 65.4368 90.9827 69.1062 90.9678 72.7732C90.9529 76.5982 88.6071 78.9704 84.8022 78.9877C79.8876 79.0099 74.9754 78.9877 70.0608 78.9877C69.8131 78.9877 69.5777 78.963 69.283 78.9482L69.2854 23.7635Z" fill="#FF4B50"/>
<path d="M21.7839 19.3923C24.0414 18.6114 26.2989 17.8306 28.5564 17.0498L76.8283 0.439779C80.544 -0.842664 83.69 0.686878 85.0029 4.39336C86.2167 7.85275 87.433 11.3064 88.6517 14.7542C89.2487 16.4468 88.8276 17.3413 87.1506 18.0308C86.7245 18.2062 86.2414 18.3372 85.912 18.6312C84.8543 19.5801 83.6107 19.5998 82.2929 19.5974C62.4907 19.5776 42.6885 19.5726 22.8863 19.5825H21.8236L21.7839 19.3923Z" fill="#FF4B50"/>
</g>
<defs>
<clipPath id="clip0_27_2596">
<rect width="91" height="79" fill="white"/>
</clipPath>
</defs>
</svg>
